<svg width="500" height="500" viewBox="0 0 500 500" fill="none" xmlns="http://www.w3.org/2000/svg">
<rect width="500" height="500" fill="white"/>
<path fill-rule="evenodd" clip-rule="evenodd" d="M249.999 400C332.84 400 399.999 332.841 399.999 250C399.999 167.158 332.84 99.9997 249.999 99.9997C167.157 99.9997 99.9987 167.158 99.9987 250C99.9987 332.841 167.157 400 249.999 400ZM249.999 416.666C342.049 416.666 416.665 342.05 416.665 250C416.665 157.95 342.049 83.333 249.999 83.333C157.949 83.333 83.332 157.95 83.332 250C83.332 342.05 157.949 416.666 249.999 416.666Z" fill="#808080"/>
<path d="M150 346.917C150 338.308 156.433 331.033 165 330.083C229.292 322.967 271 323.608 335.15 330.242C338.353 330.578 341.39 331.84 343.888 333.874C346.385 335.907 348.237 338.624 349.216 341.693C350.196 344.761 350.26 348.049 349.402 351.153C348.544 354.258 346.8 357.045 344.383 359.175C268.675 425.167 225.408 424.258 155.333 359.242C151.917 356.075 150 351.575 150 346.925V346.917Z" fill="#808080"/>
<path fill-rule="evenodd" clip-rule="evenodd" d="M334.289 338.525C270.647 331.941 229.539 331.325 165.906 338.366C163.811 338.61 161.88 339.618 160.482 341.198C159.085 342.777 158.319 344.816 158.331 346.925C158.331 349.308 159.322 351.566 160.997 353.133C195.731 385.35 222.047 399.908 247.772 400C273.589 400.091 301.322 385.65 338.906 352.9C340.1 351.837 340.959 350.45 341.38 348.908C341.801 347.366 341.764 345.735 341.275 344.213C340.786 342.691 339.866 341.344 338.625 340.336C337.385 339.328 335.879 338.701 334.289 338.533V338.525ZM164.081 321.8C229.047 314.608 271.364 315.258 336.014 321.95C340.833 322.453 345.401 324.35 349.159 327.409C352.916 330.468 355.7 334.557 357.17 339.174C358.64 343.791 358.732 348.736 357.434 353.405C356.136 358.073 353.506 362.262 349.864 365.458C311.739 398.691 279.989 416.791 247.722 416.666C215.364 416.55 185.014 398.141 149.672 365.35C147.142 362.993 145.125 360.139 143.747 356.968C142.369 353.796 141.66 350.374 141.664 346.916C141.652 340.703 143.932 334.704 148.069 330.068C152.205 325.432 157.907 322.485 164.081 321.791V321.8Z" fill="#808080"/>
<path d="M316.665 216.667C316.665 234.348 309.642 251.305 297.139 263.807C284.637 276.31 267.68 283.333 249.999 283.333C232.318 283.333 215.361 276.31 202.858 263.807C190.356 251.305 183.332 234.348 183.332 216.667C183.332 198.986 190.356 182.029 202.858 169.526C215.361 157.024 232.318 150 249.999 150C267.68 150 284.637 157.024 297.139 169.526C309.642 182.029 316.665 198.986 316.665 216.667V216.667Z" fill="#808080"/>
<path fill-rule="evenodd" clip-rule="evenodd" d="M249.999 266.667C263.26 266.667 275.977 261.399 285.354 252.022C294.731 242.645 299.999 229.927 299.999 216.667C299.999 203.406 294.731 190.688 285.354 181.311C275.977 171.935 263.26 166.667 249.999 166.667C236.738 166.667 224.02 171.935 214.643 181.311C205.267 190.688 199.999 203.406 199.999 216.667C199.999 229.927 205.267 242.645 214.643 252.022C224.02 261.399 236.738 266.667 249.999 266.667V266.667ZM249.999 283.333C267.68 283.333 284.637 276.31 297.139 263.807C309.642 251.305 316.665 234.348 316.665 216.667C316.665 198.986 309.642 182.029 297.139 169.526C284.637 157.024 267.68 150 249.999 150C232.318 150 215.361 157.024 202.858 169.526C190.356 182.029 183.332 198.986 183.332 216.667C183.332 234.348 190.356 251.305 202.858 263.807C215.361 276.31 232.318 283.333 249.999 283.333V283.333Z" fill="#808080"/>
</svg>
